<svg version="1.1" xmlns="http://www.w3.org/2000/svg" viewBox="0 0 309.3914072889959 291.3266962711899" width="928.1742218669876" height="873.9800888135698">
  <!-- svg-source:excalidraw -->
  
  <defs>
    <style>
      @font-face {
        font-family: "Virgil";
        src: url("https://excalidraw.com/Virgil.woff2");
      }
      @font-face {
        font-family: "Cascadia";
        src: url("https://excalidraw.com/Cascadia.woff2");
      }
    </style>
  </defs>
  <rect x="0" y="0" width="309.3914072889959" height="291.3266962711899" fill="#f3ee9e"></rect><g stroke-opacity="0.9" fill-opacity="0.9" stroke-linecap="round" transform="translate(10 43.26321337677285) rotate(0 144.69570364449794 119.03174144720852)"><path d="M0 0 C89.54 0, 179.08 0, 289.39 0 M0 0 C112.37 0, 224.73 0, 289.39 0 M289.39 0 C289.39 89.78, 289.39 179.56, 289.39 238.06 M289.39 0 C289.39 82.21, 289.39 164.43, 289.39 238.06 M289.39 238.06 C196.42 238.06, 103.45 238.06, 0 238.06 M289.39 238.06 C210.1 238.06, 130.8 238.06, 0 238.06 M0 238.06 C0 181.92, 0 125.78, 0 0 M0 238.06 C0 144.76, 0 51.45, 0 0" stroke="#000000" stroke-width="4" fill="none"></path></g><g stroke-opacity="0.9" fill-opacity="0.9" stroke-linecap="round" transform="translate(11.642738251557091 9.999999999999972) rotate(0 143.00000000000003 15.5)"><path d="M7.75 0 M7.75 0 C69.82 0, 131.9 0, 278.25 0 M7.75 0 C78.87 0, 149.98 0, 278.25 0 M278.25 0 C283.42 0, 286 2.58, 286 7.75 M278.25 0 C283.42 0, 286 2.58, 286 7.75 M286 7.75 C286 11.63, 286 15.52, 286 23.25 M286 7.75 C286 13.59, 286 19.44, 286 23.25 M286 23.25 C286 28.42, 283.42 31, 278.25 31 M286 23.25 C286 28.42, 283.42 31, 278.25 31 M278.25 31 C211.03 31, 143.81 31, 7.75 31 M278.25 31 C171.45 31, 64.66 31, 7.75 31 M7.75 31 C2.58 31, 0 28.42, 0 23.25 M7.75 31 C2.58 31, 0 28.42, 0 23.25 M0 23.25 C0 17.81, 0 12.38, 0 7.75 M0 23.25 C0 17.89, 0 12.53, 0 7.75 M0 7.75 C0 2.58, 2.58 0, 7.75 0 M0 7.75 C0 2.58, 2.58 0, 7.75 0" stroke="#000000" stroke-width="2" fill="none"></path></g><g stroke-opacity="0.9" fill-opacity="0.9" transform="translate(60.14273825155709 15.499999999999972) rotate(0 94.50000000000003 10)"><text x="94.5" y="14" font-family="Virgil, Segoe UI Emoji" font-size="16px" fill="#000000" text-anchor="middle" style="white-space: pre;" direction="ltr">isArmstrong (int number)</text></g><g transform="translate(62.794412224925395 92.72386196044161) rotate(0 77 20)"><text x="0" y="14" font-family="Virgil, Segoe UI Emoji" font-size="16px" fill="#000000" text-anchor="start" style="white-space: pre;" direction="ltr">int rem = num % 10</text><text x="0" y="34" font-family="Virgil, Segoe UI Emoji" font-size="16px" fill="#000000" text-anchor="start" style="white-space: pre;" direction="ltr">int num = num / 10</text></g><g transform="translate(47.15162921902851 77.08107895454478) rotate(0 70.13232803371167 19.755585361608922)"><text x="0" y="13.755585361608922" font-family="Virgil, Segoe UI Emoji" font-size="15.80446828928713px" fill="#000000" text-anchor="start" style="white-space: pre;" direction="ltr">while ( num &gt; 0) {</text><text x="0" y="33.511170723217845" font-family="Virgil, Segoe UI Emoji" font-size="15.80446828928713px" fill="#000000" text-anchor="start" style="white-space: pre;" direction="ltr"></text></g><g transform="translate(64.74972933205385 134.76382870163116) rotate(0 80.00000000000003 10)"><text x="0" y="14" font-family="Virgil, Segoe UI Emoji" font-size="16px" fill="#000000" text-anchor="start" style="white-space: pre;" direction="ltr">sum += rem*rem*rem</text></g><g transform="translate(40.30790745822935 58.01644625683335) rotate(0 47.5 10)"><text x="0" y="14" font-family="Virgil, Segoe UI Emoji" font-size="16px" fill="#000000" text-anchor="start" style="white-space: pre;" direction="ltr">int sum = 0</text></g><g transform="translate(42.01882111555176 165.56054305947276) rotate(0 88 10)"><text x="0" y="14" font-family="Virgil, Segoe UI Emoji" font-size="16px" fill="#000000" text-anchor="start" style="white-space: pre;" direction="ltr">return sum == number;</text></g><g transform="translate(143.45245126115003 56.06110677253497) rotate(0 68.5 10)"><text x="0" y="14" font-family="Virgil, Segoe UI Emoji" font-size="16px" fill="#000000" text-anchor="start" style="white-space: pre;" direction="ltr">, int num= number</text></g></svg>