<svg version="1.1" xmlns="http://www.w3.org/2000/svg" viewBox="0 0 487.64050577647765 364.16333261588125" width="1462.9215173294328" height="1092.4899978476437">
  <!-- svg-source:excalidraw -->
  
  <defs>
    <style>
      @font-face {
        font-family: "Virgil";
        src: url("https://excalidraw.com/Virgil.woff2");
      }
      @font-face {
        font-family: "Cascadia";
        src: url("https://excalidraw.com/Cascadia.woff2");
      }
    </style>
  </defs>
  <rect x="0" y="0" width="487.64050577647765" height="364.16333261588125" fill="#f3ee9e"></rect><g stroke-opacity="0.9" fill-opacity="0.9" stroke-linecap="round" transform="translate(10.801408132353515 41.796669603501755) rotate(0 233.41954882206207 156.18333150618975)"><path d="M0 0 C165.96 0, 331.92 0, 466.84 0 M0 0 C133.68 0, 267.37 0, 466.84 0 M466.84 0 C466.84 91.86, 466.84 183.72, 466.84 312.37 M466.84 0 C466.84 82.78, 466.84 165.56, 466.84 312.37 M466.84 312.37 C349.71 312.37, 232.57 312.37, 0 312.37 M466.84 312.37 C355.66 312.37, 244.49 312.37, 0 312.37 M0 312.37 C0 188.67, 0 64.97, 0 0 M0 312.37 C0 200.15, 0 87.94, 0 0" stroke="#000000" stroke-width="4" fill="none"></path></g><g stroke-opacity="0.9" fill-opacity="0.9" stroke-linecap="round" transform="translate(10 10) rotate(0 143 15.5)"><path d="M7.75 0 M7.75 0 C112.3 0, 216.84 0, 278.25 0 M7.75 0 C77.08 0, 146.41 0, 278.25 0 M278.25 0 C283.42 0, 286 2.58, 286 7.75 M278.25 0 C283.42 0, 286 2.58, 286 7.75 M286 7.75 C286 13.55, 286 19.36, 286 23.25 M286 7.75 C286 11.7, 286 15.64, 286 23.25 M286 23.25 C286 28.42, 283.42 31, 278.25 31 M286 23.25 C286 28.42, 283.42 31, 278.25 31 M278.25 31 C171.28 31, 64.31 31, 7.75 31 M278.25 31 C206.47 31, 134.68 31, 7.75 31 M7.75 31 C2.58 31, 0 28.42, 0 23.25 M7.75 31 C2.58 31, 0 28.42, 0 23.25 M0 23.25 C0 18.2, 0 13.15, 0 7.75 M0 23.25 C0 19.7, 0 16.14, 0 7.75 M0 7.75 C0 2.58, 2.58 0, 7.75 0 M0 7.75 C0 2.58, 2.58 0, 7.75 0" stroke="#000000" stroke-width="2" fill="none"></path></g><g stroke-opacity="0.9" fill-opacity="0.9" transform="translate(57 15.5) rotate(0 96 10)"><text x="96" y="14" font-family="Virgil, Segoe UI Emoji" font-size="16px" fill="#000000" text-anchor="middle" style="white-space: pre;" direction="ltr">isPalindrome (String str)</text></g><g transform="translate(40.86488976360667 75.60340921239555) rotate(0 183 110)"><text x="0" y="14" font-family="Virgil, Segoe UI Emoji" font-size="16px" fill="#000000" text-anchor="start" style="white-space: pre;" direction="ltr">int start = 0 ;</text><text x="0" y="34" font-family="Virgil, Segoe UI Emoji" font-size="16px" fill="#000000" text-anchor="start" style="white-space: pre;" direction="ltr">int end = str.length() -1 ;</text><text x="0" y="54" font-family="Virgil, Segoe UI Emoji" font-size="16px" fill="#000000" text-anchor="start" style="white-space: pre;" direction="ltr">while (start&lt;=end){</text><text x="0" y="74" font-family="Virgil, Segoe UI Emoji" font-size="16px" fill="#000000" text-anchor="start" style="white-space: pre;" direction="ltr">    if(str.charAt(start) == str.charAtr(end)){</text><text x="0" y="94" font-family="Virgil, Segoe UI Emoji" font-size="16px" fill="#000000" text-anchor="start" style="white-space: pre;" direction="ltr">         start++;</text><text x="0" y="114" font-family="Virgil, Segoe UI Emoji" font-size="16px" fill="#000000" text-anchor="start" style="white-space: pre;" direction="ltr">         end--;</text><text x="0" y="134" font-family="Virgil, Segoe UI Emoji" font-size="16px" fill="#000000" text-anchor="start" style="white-space: pre;" direction="ltr">        continue;</text><text x="0" y="154" font-family="Virgil, Segoe UI Emoji" font-size="16px" fill="#000000" text-anchor="start" style="white-space: pre;" direction="ltr">    else</text><text x="0" y="174" font-family="Virgil, Segoe UI Emoji" font-size="16px" fill="#000000" text-anchor="start" style="white-space: pre;" direction="ltr">         return false</text><text x="0" y="194" font-family="Virgil, Segoe UI Emoji" font-size="16px" fill="#000000" text-anchor="start" style="white-space: pre;" direction="ltr">return true    </text><text x="0" y="214" font-family="Virgil, Segoe UI Emoji" font-size="16px" fill="#000000" text-anchor="start" style="white-space: pre;" direction="ltr">}</text></g></svg>